<?xml version="1.0" encoding="utf-8"?>
<!-- Generator: Adobe Illustrator 15.1.0, SVG Export Plug-In . SVG Version: 6.00 Build 0)  -->
<!DOCTYPE svg PUBLIC "-//W3C//DTD SVG 1.1//EN" "http://www.w3.org/Graphics/SVG/1.1/DTD/svg11.dtd">
<svg version="1.1" id="レイヤー_1" xmlns="http://www.w3.org/2000/svg" xmlns:xlink="http://www.w3.org/1999/xlink" x="0px"
	 y="0px" width="16px" height="16px" viewBox="0 0 16 16" enable-background="new 0 0 16 16" xml:space="preserve">
<g>
	<path fill="#E83A0C" d="M11.287,6.319c-0.028,0.119-0.075,0.229-0.14,0.33C11.234,6.565,11.283,6.457,11.287,6.319z"/>
	<path fill="#E83A0C" d="M11.318,6.047c0.043,1.07-1.398,1.493-2.026,0.685C8.488,5.701,9.309,4.589,9.424,3.496
		c0.143-1.369-0.716-2.698-1.78-3.493C8.23,0.952,7.457,2.206,6.84,2.908c-0.6,0.68-1.328,1.248-1.99,1.866
		C4.139,5.437,3.456,6.136,2.873,6.914c-1.168,1.559-1.884,3.52-1.358,5.465c0.525,1.944,2.209,3.182,4.11,3.619
		c-0.959-0.414-1.856-1.469-1.858-2.547c-0.003-1.176,0.742-2.173,1.668-2.829c-0.111,0.421-0.172,0.807,0.104,1.183
		c0.257,0.35,0.706,0.52,1.13,0.427c0.991-0.216,1.037-1.307,0.449-1.941C6.536,9.661,5.974,8.951,6.195,8.04
		c0.111-0.458,0.392-0.886,0.748-1.191C6.668,7.567,7.446,8.275,7.957,8.627c0.889,0.612,1.861,1.075,2.678,1.792
		c0.857,0.754,1.492,1.772,1.364,2.955c-0.14,1.281-1.158,2.174-2.3,2.623c2.415-0.532,4.909-2.406,4.96-5.084
		C14.701,8.712,13.19,7.017,11.318,6.047"/>
	<path fill="#E83A0C" d="M11.287,6.319c0.019-0.082,0.032-0.168,0.032-0.256c0-0.005-0.001-0.011-0.001-0.016
		c-0.034-0.018-0.064-0.036-0.099-0.053C11.271,6.118,11.288,6.224,11.287,6.319z"/>
</g>
</svg>
