<?xml version="1.0" encoding="utf-8"?>
<!-- Generator: Adobe Illustrator 15.1.0, SVG Export Plug-In . SVG Version: 6.00 Build 0)  -->
<!DOCTYPE svg PUBLIC "-//W3C//DTD SVG 1.1//EN" "http://www.w3.org/Graphics/SVG/1.1/DTD/svg11.dtd">
<svg version="1.1" id="レイヤー_1" xmlns="http://www.w3.org/2000/svg" xmlns:xlink="http://www.w3.org/1999/xlink" x="0px"
	 y="0px" width="107.394px" height="128.963px" viewBox="0 0 107.394 128.963" enable-background="new 0 0 107.394 128.963"
	 xml:space="preserve">
<g>
	<path fill="#E83A0C" d="M80.203,50.924c-0.228,0.959-0.608,1.849-1.118,2.662C79.78,52.912,80.179,52.029,80.203,50.924z"/>
	<path fill="#E83A0C" d="M80.456,48.73c0.346,8.637-11.268,12.036-16.336,5.526c-6.474-8.317,0.133-17.284,1.059-26.091
		C66.335,17.127,59.414,6.412,50.831,0c4.727,7.646-1.501,17.764-6.483,23.418c-4.831,5.484-10.707,10.062-16.04,15.042
		C22.58,43.812,17.07,49.446,12.362,55.727C2.943,68.294-2.824,84.101,1.414,99.782c4.235,15.672,17.809,25.646,33.136,29.174
		c-7.733-3.343-14.969-11.838-14.986-20.529c-0.019-9.479,5.985-17.523,13.456-22.811c-0.898,3.393-1.389,6.496,0.836,9.53
		c2.069,2.821,5.691,4.191,9.111,3.447c7.992-1.748,8.359-10.534,3.622-15.653c-4.685-5.067-9.217-10.795-7.434-18.146
		c0.893-3.684,3.156-7.135,6.023-9.603c-2.205,5.791,4.058,11.501,8.182,14.344c7.157,4.935,15.005,8.665,21.586,14.448
		c6.92,6.078,12.031,14.298,10.998,23.831c-1.119,10.333-9.33,17.521-18.538,21.148c19.461-4.296,39.572-19.4,39.982-40.986
		C107.728,70.22,95.548,56.554,80.456,48.73"/>
	<path fill="#E83A0C" d="M80.203,50.924c0.157-0.664,0.264-1.349,0.264-2.064c0-0.042-0.009-0.084-0.011-0.129
		c-0.272-0.143-0.51-0.289-0.789-0.431C80.083,49.304,80.219,50.159,80.203,50.924z"/>
</g>
</svg>
